<svg id="Layer_1" data-name="Layer 1" xmlns="http://www.w3.org/2000/svg" viewBox="0 0 425.39 404.06"><defs><style>.cls-1{fill:#231f20;}.cls-2{fill:#f4b46a;}.cls-3{fill:#7a1c1a;}.cls-4{fill:#b53f3d;}.cls-5{fill:#fff;}</style></defs><title>foodie</title><polygon class="cls-1" points="344.5 243.48 254.79 243.48 254.79 239.85 338.69 239.85 328.41 218.61 338.7 197.37 277.03 197.37 277.03 193.74 344.49 193.74 332.45 218.61 344.5 243.48"/><polygon class="cls-1" points="166.85 243.48 75.53 243.48 87.56 218.61 75.53 193.74 140.67 193.74 140.67 197.37 81.32 197.37 91.6 218.61 81.32 239.85 166.85 239.85 166.85 243.48"/><path class="cls-2" d="M229.77,45.33l-14.46-29.7-14.42,29.7-18.4-10,9.18,35H239l9.22-35ZM196.6,62.59c-1.26-4.37-2.6-8.71-3.86-13.08,3.31,1.46,6.62,2.88,9.93,4.29A9.38,9.38,0,0,0,196.6,62.59Zm18.71.28s-11.07,2.44,0-31C225.52,65.31,215.31,62.87,215.31,62.87Zm17.93-.4a9.55,9.55,0,0,0-6.07-8.67c3.31-1.41,6.58-2.83,9.89-4.29C235.8,53.84,234.54,58.14,233.24,62.47Z" transform="translate(-4.26 -15.63)"/><path d="M8.19,345.36V315.13l-3.82-.78v-4.51H22.78a33.92,33.92,0,0,1,9.48,1.06,9.14,9.14,0,0,1,5.1,3.37,10.72,10.72,0,0,1,1.58,6.18,12.84,12.84,0,0,1-.79,4.41,11.19,11.19,0,0,1-2.48,4,9.65,9.65,0,0,1-4.27,2.59,8.16,8.16,0,0,1,3.49,2.18,14.29,14.29,0,0,1,2.43,3.31q.95,1.77,2,4.32a32.22,32.22,0,0,0,1.46,3.09,2.26,2.26,0,0,0,1.22,1.19l1.32.44v4H31.69c-.54,0-1.07-.56-1.57-1.68S29,345.4,28.18,343q-.95-2.89-1.65-4.76a18.76,18.76,0,0,0-1.59-3.3A3.78,3.78,0,0,0,23,333.2H19.14v12.18l4.56.58v4H4.26v-4Zm17.88-18.12q1.35-2.12,1.35-6.51,0-3.81-1.32-5.47a5.13,5.13,0,0,0-4.25-1.65,7.15,7.15,0,0,0-2.71.32v15.24a4,4,0,0,0,1.3.16l1.76,0A4.32,4.32,0,0,0,26.07,327.24Z" transform="translate(-4.26 -15.63)"/><path d="M52.21,345.36V315l-4.08-.9v-4.27H78.61L79.35,320H74.47l-2-5.86H63.19v13h5.4l1-4.43h4.07v14.08H69.62l-1-4.8H63.19v13.87L73.31,345l3.48-7,5.31,1.45L80.94,350H48.29v-4Z" transform="translate(-4.26 -15.63)"/><path d="M89.28,337.42h5.86l1.5,6.78a3.68,3.68,0,0,0,1.86,1.13,10.69,10.69,0,0,0,3.46.48,6.47,6.47,0,0,0,4.3-1.2,4.57,4.57,0,0,0,.4-6.15,10.48,10.48,0,0,0-2.82-2.25c-1.22-.7-2.89-1.54-5-2.53q-9.89-4.5-9.89-12.85a10.2,10.2,0,0,1,1.53-5.43,10.8,10.8,0,0,1,4.85-4,20.07,20.07,0,0,1,8.44-1.55c2,0,3.8.05,5.29.16s3,.26,4.71.44a19,19,0,0,0,2,.19l-.34,9.92h-5.72l-1.29-5.68a2.74,2.74,0,0,0-1.42-.69,10.23,10.23,0,0,0-2.64-.31,5.25,5.25,0,0,0-3.9,1.27,4.28,4.28,0,0,0-1.22,3.08,4.43,4.43,0,0,0,1.17,3,11.92,11.92,0,0,0,2.91,2.36q1.76,1,4.83,2.51c.09,0,.34.15.77.35a34,34,0,0,1,4.61,2.65,13.19,13.19,0,0,1,3.52,3.65,9.18,9.18,0,0,1,1.47,5.19,12.59,12.59,0,0,1-1.35,5.68,10.63,10.63,0,0,1-4.88,4.56q-3.52,1.84-9.65,1.84a31.47,31.47,0,0,1-5.76-.49q-2.65-.48-5.5-1.28a20.6,20.6,0,0,0-2.56-.58Z" transform="translate(-4.26 -15.63)"/><path d="M137.79,345.41V314.53h-5.46l-2.51,12.56H124l.84-17.25h36.55l.71,17.25h-5.48L154,314.53h-5.2v30.88l7.46.62V350H131V346Z" transform="translate(-4.26 -15.63)"/><path d="M168.81,345.33l11.53-35.49H192l11.55,35.52,2.82.6v4H188v-4l3.51-.6L190,339.64h-11.5L177,345.49l4,.47v4H165.86l-.08-4Zm20-10.25-4.09-15.27-.58-3.27-.64,3.27-3.87,15.27Z" transform="translate(-4.26 -15.63)"/><path d="M213.15,315l-3.14-.78v-4.37h19v4.37l-4.48.89v19.49q0,11.27,7.62,11.27a6,6,0,0,0,5.6-3.05,16.69,16.69,0,0,0,1.73-8.22V315l-4.72-.78v-4.37h14.77v4.37l-3.35.78v19c0,5.52-1.41,9.55-4.22,12.12s-6.65,3.85-11.5,3.85q-8.62,0-12.94-3.9t-4.33-12.36Z" transform="translate(-4.26 -15.63)"/><path d="M259,345.36V315.13l-3.82-.78v-4.51h18.4a33.92,33.92,0,0,1,9.48,1.06,9.17,9.17,0,0,1,5.11,3.37,10.8,10.8,0,0,1,1.58,6.18,12.85,12.85,0,0,1-.8,4.41,11.16,11.16,0,0,1-2.47,4,9.69,9.69,0,0,1-4.28,2.59,8.2,8.2,0,0,1,3.5,2.18,14.59,14.59,0,0,1,2.43,3.31q.93,1.77,2,4.32c.6,1.39,1.09,2.42,1.46,3.09a2.31,2.31,0,0,0,1.23,1.19l1.32.44v4H282.52c-.55,0-1.07-.56-1.57-1.68S279.8,345.4,279,343q-.94-2.89-1.65-4.76a18.76,18.76,0,0,0-1.6-3.3,3.76,3.76,0,0,0-1.92-1.75H270v12.18l4.56.58v4H255.09v-4Zm17.88-18.12q1.34-2.12,1.34-6.51c0-2.54-.43-4.36-1.31-5.47a5.14,5.14,0,0,0-4.25-1.65,7.25,7.25,0,0,0-2.72.32v15.24a4.1,4.1,0,0,0,1.31.16l1.75,0A4.33,4.33,0,0,0,276.9,327.24Z" transform="translate(-4.26 -15.63)"/><path d="M299.38,345.33l11.52-35.49h11.66l11.55,35.52,2.82.6v4H318.55v-4l3.51-.6-1.53-5.72H309l-1.48,5.85,4,.47v4H296.42l-.07-4Zm20-10.25-4.09-15.27-.58-3.27-.63,3.27-3.87,15.27Z" transform="translate(-4.26 -15.63)"/><path d="M345.62,345.36V314.87l-4.22-.76v-4.27h15.27l13.44,21.36,3.06,6.85V314.87l-4.56-.76v-4.27H383v4.27l-4,.76V350h-9.73l-14.59-23.54-3.24-7.13v26l6,.63v4h-16v-4Z" transform="translate(-4.26 -15.63)"/><path d="M402,345.41V314.53h-5.45L394,327.09h-5.83l.85-17.25h36.54l.72,17.25h-5.49l-2.66-12.56H413v30.88l7.47.62V350H395.2V346Z" transform="translate(-4.26 -15.63)"/><rect class="cls-1" x="0.06" y="268.32" width="425.33" height="4.55"/><rect class="cls-1" x="0.06" y="352.5" width="425.33" height="4.55"/><rect class="cls-1" x="60.8" y="364.65" width="303.84" height="4.55"/><path class="cls-3" d="M109.22,418.41v-15.2l-1.93-.27v-1.32h7.2a9.42,9.42,0,0,1,3.69.59,3.82,3.82,0,0,1,2,1.69,5.68,5.68,0,0,1,.59,2.75,5.77,5.77,0,0,1-.91,3.26,5.88,5.88,0,0,1-2.5,2.11,8.26,8.26,0,0,1-3.53.74h-1.56a8,8,0,0,1-1,0v5.8h3.37v1.17h-7.45v-1.05Zm8-8a4.75,4.75,0,0,0,1.34-3.77,4.37,4.37,0,0,0-.51-2.26,2.87,2.87,0,0,0-1.55-1.23,7.77,7.77,0,0,0-2.69-.39h-2.63v8.7a19.08,19.08,0,0,0,2.61.11A5.09,5.09,0,0,0,117.27,410.43Z" transform="translate(-4.26 -15.63)"/><path class="cls-3" d="M126.43,418.41V403l-2-.31v-1.05h12l.33,3.57H135.6l-.67-2.38h-6.5v7h4.47l.3-2h1.24v5.36H133.2l-.3-2.1h-4.47v7.35h7.44l1.24-3.09,1.14.36-.74,4.07H124.35v-1.05Z" transform="translate(-4.26 -15.63)"/><path class="cls-3" d="M143.91,418.42V403.14l-1.95-.33v-1.19h6.57a11.32,11.32,0,0,1,3.76.51,3.86,3.86,0,0,1,2.05,1.55,4.9,4.9,0,0,1,.63,2.61,5.56,5.56,0,0,1-.43,2.17,5.18,5.18,0,0,1-1.27,1.79,4.66,4.66,0,0,1-2,1.07,5,5,0,0,1,1.29,1.41q.66,1,1.56,2.61c.57,1,1,1.75,1.34,2.24s.63.76.89.82l1,.28v1h-2.83c-.28,0-.59-.3-.94-.88s-.83-1.46-1.4-2.63-1.2-2.32-1.64-3.06a3.92,3.92,0,0,0-1.28-1.45h-3.42v6.76l2.49.21v1.05h-6.57v-1.05Zm7.93-9a4.18,4.18,0,0,0,1-3,3.52,3.52,0,0,0-1-2.69,5,5,0,0,0-3.47-.95,15.67,15.67,0,0,0-1.69.09l-.74,0v7.49c.32,0,1,0,2,0h1.33A3.5,3.5,0,0,0,151.84,409.45Z" transform="translate(-4.26 -15.63)"/><path class="cls-3" d="M162.44,418.41V403l-2.12-.31v-1.05H173l.24,4H172l-.67-2.81h-6.84v7.09h4.85l.4-2h1.13v5.38H169.7l-.4-2.1h-4.85v7.35h3.8v1.17h-7.79v-1.05Z" transform="translate(-4.26 -15.63)"/><path class="cls-3" d="M179.14,418.41V403l-2-.31v-1.05h12l.33,3.57h-1.15l-.67-2.38h-6.5v7h4.47l.3-2h1.24v5.36h-1.24l-.3-2.1h-4.47v7.35h7.44l1.24-3.09,1.15.36-.75,4.07H177.06v-1.05Z" transform="translate(-4.26 -15.63)"/><path class="cls-3" d="M195.33,405.9a8.08,8.08,0,0,1,3.11-3.16,8.62,8.62,0,0,1,4.41-1.13,14.25,14.25,0,0,1,2.38.19c.77.13,1.55.3,2.35.48l.39.1-.2,3.86h-1.26l-.52-2.73a3.05,3.05,0,0,0-1.31-.52,10.87,10.87,0,0,0-2.32-.21,5.32,5.32,0,0,0-3,.89,5.8,5.8,0,0,0-2.1,2.58,9.89,9.89,0,0,0-.76,4.07,12.23,12.23,0,0,0,.66,4.09,6.82,6.82,0,0,0,2,3,5.1,5.1,0,0,0,3.35,1.12,8.07,8.07,0,0,0,2.16-.22,3.88,3.88,0,0,0,1.32-.65l1-2.22,1.18.18-.59,3.14a2.2,2.2,0,0,0-.64.09c-.21.06-.47.13-.8.24a14.63,14.63,0,0,1-1.65.45,10.23,10.23,0,0,1-2,.16,8.45,8.45,0,0,1-4.48-1.14,7.24,7.24,0,0,1-2.83-3.2,11.18,11.18,0,0,1-1-4.82A9.29,9.29,0,0,1,195.33,405.9Z" transform="translate(-4.26 -15.63)"/><path class="cls-3" d="M218,418.51V402.79h-4.61l-.78,5h-1.33l.4-6.18h14.81l.27,6.18h-1.31l-.67-5h-4.68v15.72h3.47v1.17h-8.75v-1.17Z" transform="translate(-4.26 -15.63)"/><path class="cls-3" d="M244.85,418.51V402.79h-4.61l-.78,5h-1.33l.4-6.18h14.81l.27,6.18H252.3l-.67-5H247v15.72h3.46v1.17h-8.75v-1.17Z" transform="translate(-4.26 -15.63)"/><path class="cls-3" d="M257.17,418.41l6.05-16.79h2l6.06,16.79,1.59.22v1.05h-5.93v-1.05l2.14-.22-1.29-3.87h-7.59l-1.27,3.85,2.15.24v1.05H255.6v-1.05Zm10.18-5.13-2.73-7.95-.68-2.28-.66,2.35-2.67,7.88Z" transform="translate(-4.26 -15.63)"/><path class="cls-3" d="M276,414.34h1.25l.37,3.11a3.77,3.77,0,0,0,1.47.74,7.43,7.43,0,0,0,2.21.31,4.54,4.54,0,0,0,3-.88,3,3,0,0,0,1.05-2.42,2.65,2.65,0,0,0-.54-1.67,4.89,4.89,0,0,0-1.42-1.17,24.13,24.13,0,0,0-2.4-1.12,22.47,22.47,0,0,1-2.44-1.18,6.11,6.11,0,0,1-1.76-1.58,3.91,3.91,0,0,1-.75-2.41,3.87,3.87,0,0,1,.73-2.33,4.76,4.76,0,0,1,2-1.57,7.48,7.48,0,0,1,3-.56,10.47,10.47,0,0,1,1.92.17c.59.13,1.22.28,1.89.48a8.09,8.09,0,0,0,.79.21l-.15,3.9H285l-.45-2.94a2.82,2.82,0,0,0-1.12-.46,7.38,7.38,0,0,0-1.79-.21,4.45,4.45,0,0,0-2.75.72,2.5,2.5,0,0,0-.95,2.13,2.62,2.62,0,0,0,.47,1.58,4.36,4.36,0,0,0,1.26,1.09c.51.3,1.28.68,2.29,1.15l.28.13.26.11c1.06.5,1.92.94,2.58,1.33a6,6,0,0,1,1.67,1.51,3.55,3.55,0,0,1,.69,2.19,4.31,4.31,0,0,1-.75,2.41,5.51,5.51,0,0,1-2.18,1.86,7.35,7.35,0,0,1-3.35.72,10.47,10.47,0,0,1-2.26-.23c-.67-.15-1.37-.34-2.11-.58l-.45-.15a3,3,0,0,0-.56-.13Z" transform="translate(-4.26 -15.63)"/><path class="cls-3" d="M297.39,418.51V402.79h-4.61l-.78,5h-1.33l.4-6.18h14.81l.27,6.18h-1.31l-.67-5H299.5v15.72H303v1.17h-8.75v-1.17Z" transform="translate(-4.26 -15.63)"/><path class="cls-3" d="M311.72,418.41V403l-2-.31v-1.05h12l.34,3.57h-1.16l-.66-2.38h-6.5v7h4.47l.3-2h1.23v5.36h-1.23l-.3-2.1h-4.47v7.35h7.44l1.23-3.09,1.15.36-.74,4.07H309.64v-1.05Z" transform="translate(-4.26 -15.63)"/><path class="cls-1" d="M184.34,110.07V94.81l-2-.26V93.41h6.81a8.12,8.12,0,0,1,4.58,1,3.33,3.33,0,0,1,1.42,2.92,4.84,4.84,0,0,1-.41,2,4,4,0,0,1-1.22,1.54,4.5,4.5,0,0,1-2,.85,6.2,6.2,0,0,1,2.61.51,3.76,3.76,0,0,1,1.68,1.49,4.34,4.34,0,0,1,.58,2.25,5.59,5.59,0,0,1-.69,2.78,4.9,4.9,0,0,1-2.33,2,10.23,10.23,0,0,1-4.3.76h-6.83V110.3Zm4.09-8.73h.9a3.87,3.87,0,0,0,2.81-1,3.59,3.59,0,0,0,1-2.7,3.84,3.84,0,0,0-.41-1.87,2.52,2.52,0,0,0-1.33-1.11,6.93,6.93,0,0,0-2.51-.37c-.53,0-1.16,0-1.89.1l-.64,0v6.81C186.67,101.33,187.36,101.34,188.43,101.34Zm.65,9a6.05,6.05,0,0,0,3.94-1,3.69,3.69,0,0,0,1.22-3,4.43,4.43,0,0,0-.45-2.13,2.82,2.82,0,0,0-1.43-1.21,7.19,7.19,0,0,0-2.54-.38h-3.48v7.52A11.47,11.47,0,0,0,189.08,110.33Z" transform="translate(-4.26 -15.63)"/><path class="cls-1" d="M202.36,110.2V94.77l-2-.31v-1h12l.33,3.57h-1.15l-.66-2.38h-6.5v7h4.47l.3-2h1.23v5.36h-1.23l-.3-2.09h-4.47v7.34h7.43L213,107l1.15.36-.75,4.07H200.29v-1Z" transform="translate(-4.26 -15.63)"/><path class="cls-1" d="M218.32,106.14h1.25l.36,3.11a3.91,3.91,0,0,0,1.48.73,7.4,7.4,0,0,0,2.2.32,4.63,4.63,0,0,0,3-.88,3,3,0,0,0,1.05-2.42,2.61,2.61,0,0,0-.54-1.67,4.89,4.89,0,0,0-1.42-1.18c-.58-.32-1.38-.69-2.4-1.12a22.47,22.47,0,0,1-2.44-1.18,6.11,6.11,0,0,1-1.76-1.58,4.17,4.17,0,0,1,0-4.74,4.83,4.83,0,0,1,2-1.57,7.48,7.48,0,0,1,3-.56,9.64,9.64,0,0,1,1.92.18c.59.12,1.21.28,1.88.47a6.84,6.84,0,0,0,.8.22l-.15,3.89h-1.2l-.45-2.94a3.07,3.07,0,0,0-1.13-.45,6.78,6.78,0,0,0-1.78-.22,4.5,4.5,0,0,0-2.76.72,2.54,2.54,0,0,0-.94,2.14,2.61,2.61,0,0,0,.47,1.57,4.21,4.21,0,0,0,1.26,1.09c.51.3,1.28.68,2.29,1.15l.28.13.25.12a28.71,28.71,0,0,1,2.59,1.32,6.16,6.16,0,0,1,1.67,1.51,3.57,3.57,0,0,1,.69,2.19,4.31,4.31,0,0,1-.75,2.41,5.51,5.51,0,0,1-2.18,1.86,7.41,7.41,0,0,1-3.35.72,10.34,10.34,0,0,1-2.26-.23c-.67-.15-1.37-.34-2.11-.58-.06,0-.21-.07-.45-.15a4.52,4.52,0,0,0-.56-.13Z" transform="translate(-4.26 -15.63)"/><path class="cls-1" d="M239.7,110.3V94.59h-4.62l-.78,5H233l.41-6.19h14.8l.27,6.19h-1.3l-.68-5H241.8V110.3h3.46v1.17h-8.74V110.3Z" transform="translate(-4.26 -15.63)"/><path class="cls-1" d="M165.54,130.12a8.21,8.21,0,0,1,3.11-3.16,8.75,8.75,0,0,1,4.41-1.13,14.15,14.15,0,0,1,2.38.2c.77.13,1.55.29,2.35.48l.39.1-.2,3.86h-1.25l-.53-2.74a3.19,3.19,0,0,0-1.3-.52,11.82,11.82,0,0,0-2.33-.2,5.31,5.31,0,0,0-3,.88,6,6,0,0,0-2.1,2.59,10,10,0,0,0-.76,4.07,12.17,12.17,0,0,0,.66,4.08,6.79,6.79,0,0,0,2,3,5.06,5.06,0,0,0,3.35,1.12,8,8,0,0,0,2.15-.22,4.07,4.07,0,0,0,1.32-.65l1-2.23,1.18.18-.59,3.15a2.3,2.3,0,0,0-.64.09c-.21.05-.47.13-.8.24a12.28,12.28,0,0,1-1.65.44,10.16,10.16,0,0,1-2,.16,8.39,8.39,0,0,1-4.47-1.13,7.31,7.31,0,0,1-2.84-3.2,11.23,11.23,0,0,1-1-4.83A9.31,9.31,0,0,1,165.54,130.12Z" transform="translate(-4.26 -15.63)"/><path class="cls-1" d="M184.38,142.63V127.16l-2-.27v-1h6.11v1l-2.11.26V134h9.26v-6.82l-2-.27v-1h6v1l-2,.27v15.47l2,.23v1h-6v-1l2-.23v-7.37h-9.26v7.38l2.12.22v1h-6.19v-1Z" transform="translate(-4.26 -15.63)"/><path class="cls-1" d="M204.69,130.16a8,8,0,0,1,2.92-3.2,7.77,7.77,0,0,1,4.11-1.13,7.55,7.55,0,0,1,4.12,1.09,6.86,6.86,0,0,1,2.6,3.08,11.45,11.45,0,0,1,.88,4.67,10.5,10.5,0,0,1-1.08,4.87,8,8,0,0,1-3,3.23,7.79,7.79,0,0,1-4.14,1.14,6.85,6.85,0,0,1-6.64-4.26,11.59,11.59,0,0,1-.89-4.68A10.42,10.42,0,0,1,204.69,130.16ZM206.5,139a6.11,6.11,0,0,0,1.92,2.77,4.77,4.77,0,0,0,3,1,4.87,4.87,0,0,0,3-.92,5.9,5.9,0,0,0,2-2.73,12.2,12.2,0,0,0,.71-4.43,11.37,11.37,0,0,0-.66-4,6,6,0,0,0-1.9-2.72,4.81,4.81,0,0,0-3-1,5.06,5.06,0,0,0-3,.9,5.7,5.7,0,0,0-2,2.68,12.05,12.05,0,0,0-.71,4.41A11.49,11.49,0,0,0,206.5,139Z" transform="translate(-4.26 -15.63)"/><path class="cls-1" d="M225.74,142.63V127.16l-2.38-.27v-1h6.75v1l-2.36.26v15.48l2.36.24v1h-6.75v-1Z" transform="translate(-4.26 -15.63)"/><path class="cls-1" d="M235.28,130.12a8.21,8.21,0,0,1,3.11-3.16,8.72,8.72,0,0,1,4.41-1.13,14.24,14.24,0,0,1,2.38.2c.77.13,1.55.29,2.35.48l.39.1-.2,3.86h-1.26l-.52-2.74a3.18,3.18,0,0,0-1.31-.52,11.64,11.64,0,0,0-2.32-.2,5.31,5.31,0,0,0-3,.88,5.89,5.89,0,0,0-2.1,2.59,9.86,9.86,0,0,0-.76,4.07,12.17,12.17,0,0,0,.66,4.08,6.85,6.85,0,0,0,2,3,5.11,5.11,0,0,0,3.36,1.12,8,8,0,0,0,2.15-.22,4.07,4.07,0,0,0,1.32-.65l1-2.23,1.18.18-.59,3.15a2.25,2.25,0,0,0-.64.09c-.21.05-.47.13-.8.24a12.69,12.69,0,0,1-1.65.44,10.16,10.16,0,0,1-2,.16,8.39,8.39,0,0,1-4.47-1.13,7.25,7.25,0,0,1-2.84-3.2,11.23,11.23,0,0,1-1-4.83A9.31,9.31,0,0,1,235.28,130.12Z" transform="translate(-4.26 -15.63)"/><path class="cls-1" d="M254.05,142.63V127.2l-2-.31v-1h12l.33,3.57h-1.15l-.67-2.39h-6.5v7h4.47l.3-2.06h1.24v5.37h-1.24l-.3-2.1h-4.47v7.34h7.44l1.24-3.09,1.14.36-.74,4.07H252v-1Z" transform="translate(-4.26 -15.63)"/><path class="cls-1" d="M112.63,229.63a5.15,5.15,0,0,1,1.91-2,5.25,5.25,0,0,1,2.72-.73,4.06,4.06,0,0,1,2.88,1,3.84,3.84,0,0,1,1.1,2.79v.3a6.25,6.25,0,0,1-.11,1.36h-7.4a1.38,1.38,0,0,0,0,.25,6.39,6.39,0,0,0,.54,2.61,3.67,3.67,0,0,0,1.34,1.57,3.41,3.41,0,0,0,1.86.52,5.44,5.44,0,0,0,1.77-.32,4.26,4.26,0,0,0,1.42-.74l.34.76a4.63,4.63,0,0,1-1.76,1.06,6.64,6.64,0,0,1-2.31.42,4.88,4.88,0,0,1-2.73-.73,4.49,4.49,0,0,1-1.71-2,7.5,7.5,0,0,1-.57-3A6.34,6.34,0,0,1,112.63,229.63Zm6.76,1.66a7.45,7.45,0,0,0,0-.79,2.72,2.72,0,0,0-.65-1.87,2.52,2.52,0,0,0-2-.7q-2.84,0-3.08,3.36Z" transform="translate(-4.26 -15.63)"/><path class="cls-1" d="M126,235l.32,1.54a1.36,1.36,0,0,0,.52.41,4.46,4.46,0,0,0,.92.33,4.72,4.72,0,0,0,1.06.12c1.7,0,2.55-.6,2.55-1.81a1.51,1.51,0,0,0-.34-1,3.13,3.13,0,0,0-1-.74,14.13,14.13,0,0,0-1.79-.71,8.07,8.07,0,0,1-1.81-.86,3.07,3.07,0,0,1-1-1.11,3.24,3.24,0,0,1-.34-1.54,2.27,2.27,0,0,1,.54-1.5,3.42,3.42,0,0,1,1.47-1,5.87,5.87,0,0,1,2-.34,8.52,8.52,0,0,1,1.39.11,7.42,7.42,0,0,1,1,.23c.23.07.51.17.85.3v2.36h-1l-.36-1.43a1.13,1.13,0,0,0-.72-.44,4.46,4.46,0,0,0-1.31-.18,3.26,3.26,0,0,0-1.17.2,1.73,1.73,0,0,0-.79.55,1.31,1.31,0,0,0-.29.83,1.71,1.71,0,0,0,.31,1.06,2.17,2.17,0,0,0,.78.66,11.27,11.27,0,0,0,1.27.56l.39.15a17.93,17.93,0,0,1,1.91.85,3.53,3.53,0,0,1,1.19,1,2.5,2.5,0,0,1,.48,1.56,2.73,2.73,0,0,1-.54,1.69,3.31,3.31,0,0,1-1.51,1.09,6,6,0,0,1-2.25.38,8.12,8.12,0,0,1-2-.29,7.78,7.78,0,0,1-1.69-.59V235Z" transform="translate(-4.26 -15.63)"/><path class="cls-1" d="M136.12,228.1v-.82l.71-.18a3,3,0,0,0,.5-.17,1,1,0,0,0,.27-.27,1.65,1.65,0,0,0,.18-.42,12.42,12.42,0,0,0,.35-1.28c.15-.62.24-1,.28-1.27h1v3.18h3.69v1.23h-3.69v6.55a11.87,11.87,0,0,0,.09,1.67.85.85,0,0,0,.34.62,2,2,0,0,0,.87.13h0a6.07,6.07,0,0,0,1.33-.16,5.93,5.93,0,0,0,1.14-.34h0l.27.77a4.86,4.86,0,0,1-.93.48,8.5,8.5,0,0,1-1.32.42,5.56,5.56,0,0,1-1.26.16h0a1.92,1.92,0,0,1-2.2-2.27v-8Z" transform="translate(-4.26 -15.63)"/><path class="cls-1" d="M286.32,238.47v-8.09a7.15,7.15,0,0,1-1.11.38,8.72,8.72,0,0,1-1.28.27l-.18-.78a7.68,7.68,0,0,0,3.1-1.52h0l.8.17v9.57h2.18v.77h-5.75v-.77Z" transform="translate(-4.26 -15.63)"/><path class="cls-1" d="M299.06,237.54a8.44,8.44,0,0,1-2.38,3,7.22,7.22,0,0,1-3.14,1.49l-.33-.63a7.47,7.47,0,0,0,2.4-1.28,7.25,7.25,0,0,0,1.68-2,8.11,8.11,0,0,0,.94-2.39,3.44,3.44,0,0,1-1.18.93,3.57,3.57,0,0,1-1.61.38,4.08,4.08,0,0,1-2.06-.49,3.39,3.39,0,0,1-1.33-1.4,4.9,4.9,0,0,1,.05-4.25,4,4,0,0,1,1.47-1.6,4.09,4.09,0,0,1,2.23-.6,4,4,0,0,1,2.31.64,3.82,3.82,0,0,1,1.39,1.73,6.22,6.22,0,0,1,.46,2.45A8.87,8.87,0,0,1,299.06,237.54Zm-.62-3.48v-.37a6.57,6.57,0,0,0-.62-3,2.21,2.21,0,0,0-2.13-1.18,2.24,2.24,0,0,0-1.45.48,2.92,2.92,0,0,0-.9,1.25,4.25,4.25,0,0,0-.3,1.57,4.11,4.11,0,0,0,.68,2.6,2.25,2.25,0,0,0,1.84.83,3.26,3.26,0,0,0,1.29-.25,3.36,3.36,0,0,0,1-.6,2.24,2.24,0,0,0,.55-.71C298.42,234.51,298.43,234.32,298.44,234.06Z" transform="translate(-4.26 -15.63)"/><path class="cls-1" d="M310,237.54a8.53,8.53,0,0,1-2.37,3,7.27,7.27,0,0,1-3.14,1.49l-.33-.63a7.29,7.29,0,0,0,4.08-3.23,8.69,8.69,0,0,0,.94-2.39,3.53,3.53,0,0,1-1.18.93,3.58,3.58,0,0,1-1.62.38,4,4,0,0,1-2.05-.49,3.33,3.33,0,0,1-1.33-1.4,4.53,4.53,0,0,1-.46-2.11,4.62,4.62,0,0,1,.51-2.14,4,4,0,0,1,1.46-1.6,4.49,4.49,0,0,1,4.55,0,3.89,3.89,0,0,1,1.39,1.73,6.4,6.4,0,0,1,.45,2.45A8.87,8.87,0,0,1,310,237.54Zm-.61-3.48v-.37a6.45,6.45,0,0,0-.62-3,2.19,2.19,0,0,0-2.13-1.18,2.26,2.26,0,0,0-1.45.48,3,3,0,0,0-.9,1.25,4.45,4.45,0,0,0-.29,1.57,4.11,4.11,0,0,0,.68,2.6,2.23,2.23,0,0,0,1.83.83,3.27,3.27,0,0,0,1.3-.25,3.19,3.19,0,0,0,1-.6,2.1,2.1,0,0,0,.55-.71C309.37,234.51,309.37,234.32,309.39,234.06Z" transform="translate(-4.26 -15.63)"/><path class="cls-1" d="M314.44,230l-.57,2.11-.88-.16.33-3h7.35l.28.35-2.56,7.21c-.48,1.33-.9,2.5-1.26,3.53s-.61,1.72-.75,2.08l-1.47-.4c.54-1.18,1.07-2.42,1.6-3.71s1.18-2.93,2-4.92c.54-1.38.95-2.39,1.22-3.06Z" transform="translate(-4.26 -15.63)"/><path class="cls-4" d="M139.28,75.71s1.11-.39,2.74-1.07a17.05,17.05,0,0,0,5.51-3.77,16.06,16.06,0,0,0,4.16-8.16c.73-3.51.55-8.05-1.46-13.86C142.59,52,138.37,55.46,136.1,59c-2.2,3.81-2.44,7.85-2.07,12.61,2.48-4.7,4.74-7.12,6.32-8.17a4.91,4.91,0,0,1,2.42-1.14l-1.22,4.53C140.85,69.45,140,72.73,139.28,75.71Z" transform="translate(-4.26 -15.63)"/><path class="cls-4" d="M109.92,89.11a16.7,16.7,0,0,0,6.8-6.45c2.63-4.43,4.42-11.32-1.75-22-7.14,4.36-10.45,9.06-11.89,13s-.61,8.19.86,12.67A21,21,0,0,1,108.2,77a5,5,0,0,1,2.09-1.68S110,83.34,109.92,89.11Z" transform="translate(-4.26 -15.63)"/><path class="cls-4" d="M85.84,109.38a14.14,14.14,0,0,0,1.7-2.25,16,16,0,0,0,2.83-5.79,18.33,18.33,0,0,0-.12-9c-1-3.46-3.13-7.49-7.54-11.77-11.34,13-8.85,20.23-3.46,27.81-.2-5.14.42-8.51,1.31-10.16a5,5,0,0,1,1.57-2.17s.48,1.9,1.14,4.54S84.94,106.54,85.84,109.38Z" transform="translate(-4.26 -15.63)"/><path class="cls-4" d="M69,135.81a16.92,16.92,0,0,0,1.88-9.09c-.16-5-2.74-11.87-13.62-17.41-3.47,7.9-3.84,13.49-2.67,17.67s4.15,7.09,7.89,9.94c-1.92-4.95-2-8.17-1.78-10.09a5,5,0,0,1,.77-2.58S65.69,131,69,135.81Z" transform="translate(-4.26 -15.63)"/><path class="cls-4" d="M60.1,166.54a18.15,18.15,0,0,0-.5-9.43c-1.56-4.85-6-10.75-18-13a44.09,44.09,0,0,0-.14,10.52,20,20,0,0,0,2.41,7c2.16,3.69,5.78,5.79,10.12,7.65-3-4.37-3.95-7.45-4.28-9.37a5,5,0,0,1,.06-2.69Z" transform="translate(-4.26 -15.63)"/><path class="cls-4" d="M58.26,199.21a17.84,17.84,0,0,0-.25-3,17.35,17.35,0,0,0-2.18-6.36c-2.55-4.5-8.08-9.28-20.31-8.77,1.76,16.55,8.09,20,17.26,22-3.69-3.74-5.39-6.57-6-8.39a5,5,0,0,1-.46-2.64Z" transform="translate(-4.26 -15.63)"/><path class="cls-4" d="M62.1,232.11a19,19,0,0,0-3.9-8.84c-3.32-4.07-9.52-7.83-21.48-5.23,4.5,15.85,11.18,18.27,20.61,18.81C53,233.75,51,231.2,50,229.53a5,5,0,0,1-.87-2.54Z" transform="translate(-4.26 -15.63)"/><path class="cls-4" d="M294.42,75.71s-1.11-.39-2.74-1.07a17.05,17.05,0,0,1-5.51-3.77A16.06,16.06,0,0,1,282,62.71c-.73-3.51-.55-8.05,1.46-13.86C291.11,52,295.33,55.46,297.6,59c2.2,3.81,2.44,7.85,2.07,12.61-2.48-4.7-4.73-7.12-6.31-8.17a5,5,0,0,0-2.43-1.14l1.22,4.53C292.85,69.45,293.73,72.73,294.42,75.71Z" transform="translate(-4.26 -15.63)"/><path class="cls-4" d="M323.78,89.11a16.7,16.7,0,0,1-6.8-6.45c-2.63-4.43-4.42-11.32,1.75-22,7.15,4.36,10.45,9.06,11.89,13s.61,8.19-.86,12.67A21,21,0,0,0,325.5,77a5,5,0,0,0-2.09-1.68S323.71,83.34,323.78,89.11Z" transform="translate(-4.26 -15.63)"/><path class="cls-4" d="M347.87,109.38a13.78,13.78,0,0,1-1.71-2.25,15.86,15.86,0,0,1-2.82-5.79,18.09,18.09,0,0,1,.12-9c1-3.46,3.12-7.49,7.53-11.77,11.34,13,8.85,20.23,3.46,27.81.2-5.14-.42-8.51-1.31-10.16a5,5,0,0,0-1.57-2.17s-.48,1.9-1.14,4.54S348.76,106.54,347.87,109.38Z" transform="translate(-4.26 -15.63)"/><path class="cls-4" d="M364.73,135.81a16.92,16.92,0,0,1-1.88-9.09c.16-5,2.74-11.87,13.63-17.41,3.46,7.9,3.84,13.49,2.66,17.67s-4.15,7.09-7.89,9.94c1.92-4.95,2-8.17,1.78-10.09a5,5,0,0,0-.77-2.58S368,131,364.73,135.81Z" transform="translate(-4.26 -15.63)"/><path class="cls-4" d="M373.6,166.54a18.15,18.15,0,0,1,.5-9.43c1.56-4.85,5.95-10.75,18-13a44,44,0,0,1,.13,10.52,20,20,0,0,1-2.41,7c-2.16,3.69-5.78,5.79-10.12,7.65,3-4.37,4-7.45,4.28-9.37a5.11,5.11,0,0,0-.05-2.69Z" transform="translate(-4.26 -15.63)"/><path class="cls-4" d="M375.44,199.21a19.3,19.3,0,0,1,.25-3,17.35,17.35,0,0,1,2.18-6.36c2.55-4.5,8.08-9.28,20.31-8.77-1.76,16.55-8.09,20-17.26,22,3.69-3.74,5.39-6.57,6-8.39a5,5,0,0,0,.46-2.64Z" transform="translate(-4.26 -15.63)"/><path class="cls-4" d="M371.6,232.11a18.92,18.92,0,0,1,3.91-8.84c3.31-4.07,9.51-7.83,21.47-5.23-4.5,15.85-11.18,18.27-20.61,18.81,4.31-3.1,6.31-5.65,7.3-7.32a5,5,0,0,0,.87-2.54Z" transform="translate(-4.26 -15.63)"/><polygon class="cls-1" points="301.69 97.05 301.46 104.5 307.1 109.39 299.94 111.47 297.04 118.33 292.84 112.17 285.41 111.53 289.99 105.64 288.29 98.38 295.31 100.9 301.69 97.05"/><polygon class="cls-1" points="328.49 123.65 328.25 131.1 333.89 135.98 326.73 138.06 323.83 144.93 319.64 138.77 312.21 138.13 316.78 132.24 315.09 124.97 322.11 127.5 328.49 123.65"/><polygon class="cls-1" points="122.84 97.05 123.08 104.5 117.44 109.39 124.6 111.47 127.5 118.33 131.69 112.17 139.12 111.53 134.55 105.64 136.24 98.38 129.22 100.9 122.84 97.05"/><polygon class="cls-1" points="96.05 123.65 96.28 131.1 90.64 135.98 97.81 138.06 100.71 144.93 104.9 138.77 112.33 138.13 107.76 132.24 109.45 124.97 102.43 127.5 96.05 123.65"/><polygon class="cls-1" points="166.75 247.99 162.6 170.4 259.54 170.4 255.38 247.99 166.75 247.99"/><rect class="cls-1" x="166.85" y="251.1" width="87.94" height="6.23"/><circle class="cls-1" cx="164.72" cy="184.29" r="26.59"/><circle class="cls-1" cx="257.42" cy="184.29" r="26.59"/><circle class="cls-1" cx="211.07" cy="176.48" r="35.94"/><path class="cls-5" d="M166.35,227.15a60.87,60.87,0,0,0,13.44-4.91c4.22-2.18,8.19-5,10.6-8.9l.9-1.43,1.17,1.15,1.93,1.9a23.06,23.06,0,0,0,2,1.85,44.19,44.19,0,0,0,4.31,3.29,36.73,36.73,0,0,0,4.68,2.78,25.23,25.23,0,0,0,2.48,1.14,23.08,23.08,0,0,0,2.54,1,40.45,40.45,0,0,0,21.74,1.48,41,41,0,0,1-22.13-.25,23.26,23.26,0,0,1-2.68-.87,24.87,24.87,0,0,1-2.64-1,38.61,38.61,0,0,1-5-2.6,46.27,46.27,0,0,1-4.71-3.18,23.61,23.61,0,0,1-2.18-1.82l-2.15-1.87,2.06-.28c-2.61,4.72-6.86,8-11.24,10.59a64.88,64.88,0,0,1-14,6Z" transform="translate(-4.26 -15.63)"/><polygon class="cls-5" points="251.15 213.69 247.01 241.67 247 213.39 251.15 213.69"/></svg>